<svg width="200" height="200" viewBox="0 0 200 200" fill="none" xmlns="http://www.w3.org/2000/svg">
<path d="M100 200C155.228 200 200 155.228 200 100C200 44.7715 155.228 0 100 0C44.7715 0 0 44.7715 0 100C0 155.228 44.7715 200 100 200Z" fill="#502C14"/>
<path d="M200 100C200 95.8531 199.743 91.7668 199.252 87.7527L163.453 51.9531L31.8598 148.047L82.2398 198.427C88.0035 199.46 93.9387 200 100 200C155.229 200 200 155.229 200 100Z" fill="#E38E06"/>
<path d="M124.74 162.943L114.665 155.13L104.59 162.943V144.809H124.74V162.943Z" fill="#1E67F7"/>
<path d="M114.665 155.13L124.74 162.943V144.809H114.665V155.13Z" fill="#0053BF"/>
<path d="M163.453 51.9531H86.0273V148.047H163.453V51.9531Z" fill="#FF5B00"/>
<path d="M163.453 100.195H86.0273V148.047H163.453V100.195Z" fill="#E2330A"/>
<path d="M97.043 51.9531H31.8594V148.047H97.043V51.9531Z" fill="white"/>
<path d="M97.043 100.195H31.8594V148.047H97.043V100.195Z" fill="#E4E4E4"/>
<path d="M139.689 107.861H145.857C151.941 107.861 156.873 102.929 156.873 96.8453V90.6777H150.705C144.621 90.6777 139.689 95.6098 139.689 101.694V107.861Z" fill="#0AEA4F"/>
<path d="M139.795 107.861H145.857C151.941 107.861 156.873 102.929 156.873 96.8453V90.7832L139.795 107.861Z" fill="#05C63B"/>
<path d="M87.707 116.426H41.1914V124.465H87.707V116.426Z" fill="#BFACA4"/>
<path d="M87.707 130.828H41.1914V138.867H87.707V130.828Z" fill="#BFACA4"/>
<path d="M67.5781 64.8594H41.1914V71.4586H67.5781V64.8594Z" fill="#D1C1B8"/>
<path d="M67.5781 76.6836H41.1914V83.2828H67.5781V76.6836Z" fill="#D1C1B8"/>
<path d="M67.5781 88.6875H41.1914V95.2867H67.5781V88.6875Z" fill="#D1C1B8"/>
<path d="M67.5781 100.512H41.1914V107.111H67.5781V100.512Z" fill="#BFACA4"/>
<path d="M139.689 107.861H104.59C104.59 99.1781 111.629 92.1387 120.312 92.1387H123.967C132.65 92.1387 139.689 99.1781 139.689 107.861Z" fill="#FFDD17"/>
<path d="M139.689 107.861C139.689 99.1781 132.65 92.1387 123.966 92.1387H121.921V107.861H139.689Z" fill="#FFB81A"/>
<path d="M149.477 116.424H111.655C106.512 116.424 102.343 112.255 102.343 107.112H158.789C158.789 112.255 154.62 116.424 149.477 116.424Z" fill="white"/>
<path d="M130.525 107.112V116.424H149.478C154.62 116.424 158.789 112.255 158.789 107.112H130.525Z" fill="#F0F0F0"/>
</svg>
