<svg width="88" height="88" viewBox="0 0 88 88" fill="none" xmlns="http://www.w3.org/2000/svg">
<g clip-path="url(#clip0)" filter="url(#filter0_d)">
<path d="M44 80C66.0914 80 84 62.0914 84 40C84 17.9086 66.0914 0 44 0C21.9086 0 4 17.9086 4 40C4 62.0914 21.9086 80 44 80Z" fill="#FFF6E0"/>
<path d="M50.9996 42.3338C49.7094 42.3338 48.6665 43.3792 48.6665 44.6669V54.0004C48.6665 55.286 47.621 56.3336 46.3329 56.3336H39.3329V21.334C39.3329 19.3413 38.0636 17.561 36.1551 16.8984L35.4643 16.6672H46.3329C47.621 16.6672 48.6665 17.7148 48.6665 19.0008V26.0007C48.6665 27.2884 49.7094 28.3339 50.9996 28.3339C52.2899 28.3339 53.3328 27.2884 53.3328 26.0007V19.0008C53.3328 15.1415 50.1922 12.0009 46.3329 12.0009H21.2499C21.1611 12.0009 21.0867 12.0406 21.0004 12.0522C20.8881 12.0428 20.7808 12.0009 20.6668 12.0009C18.0931 12.0009 16 14.0935 16 16.6672V58.6668C16 60.6594 17.2693 62.4398 19.1778 63.1024L33.22 67.7833C33.6959 67.9302 34.1693 68.0003 34.6666 68.0003C37.2403 68.0003 39.3329 65.9072 39.3329 63.3335V61.0004H46.3329C50.1922 61.0004 53.3328 57.8597 53.3328 54.0004V44.6669C53.3328 43.3792 52.2899 42.3338 50.9996 42.3338Z" fill="#FFB14E"/>
<path d="M71.3158 33.6843L61.9823 24.3512C61.3154 23.6838 60.3118 23.483 59.4394 23.8445C58.5691 24.2063 57.9996 25.0578 57.9996 26.0007V33.0007H48.6665C47.3783 33.0007 46.3329 34.0457 46.3329 35.3338C46.3329 36.622 47.3783 37.667 48.6665 37.667H57.9996V44.6669C57.9996 45.6099 58.5691 46.4613 59.4394 46.8232C60.3118 47.1847 61.3154 46.9839 61.9823 46.3169L71.3158 36.9834C72.228 36.0713 72.228 34.5964 71.3158 33.6843Z" fill="#FFB14E"/>
</g>
<defs>
<filter id="filter0_d" x="0" y="0" width="88" height="88" filterUnits="userSpaceOnUse" color-interpolation-filters="sRGB">
<feFlood flood-opacity="0" result="BackgroundImageFix"/>
<feColorMatrix in="SourceAlpha" type="matrix" values="0 0 0 0 0 0 0 0 0 0 0 0 0 0 0 0 0 0 127 0"/>
<feOffset dy="4"/>
<feGaussianBlur stdDeviation="2"/>
<feColorMatrix type="matrix" values="0 0 0 0 0 0 0 0 0 0 0 0 0 0 0 0 0 0 0.25 0"/>
<feBlend mode="normal" in2="BackgroundImageFix" result="effect1_dropShadow"/>
<feBlend mode="normal" in="SourceGraphic" in2="effect1_dropShadow" result="shape"/>
</filter>
<clipPath id="clip0">
<rect width="80" height="80" fill="white" transform="translate(4)"/>
</clipPath>
</defs>
</svg>
