<svg width="80" height="80" viewBox="0 0 80 80" fill="none" xmlns="http://www.w3.org/2000/svg">
<path d="M40 80C62.0914 80 80 62.0914 80 40C80 17.9086 62.0914 0 40 0C17.9086 0 0 17.9086 0 40C0 62.0914 17.9086 80 40 80Z" fill="#FFF6E0"/>
<path d="M57.7313 54.5438H43.3875V51.3563H54.5438V46.575H57.7313V54.5438Z" fill="white"/>
<path d="M37.0125 54.5438H22.6688V46.575H25.8563V51.3563H37.0125V54.5438Z" fill="white"/>
<path d="M35.4188 44.9813H44.9813V65.8063H35.4188V44.9813Z" fill="#D3D3D8"/>
<path d="M40.2 44.9813H44.9813V65.8063H40.2V44.9813Z" fill="#BABAC0"/>
<path d="M13 13V48.1688H67.4V13H13Z" fill="#73BCFF"/>
<path d="M40.2 13H67.4V48.1688H40.2V13Z" fill="#3AAAFF"/>
<path d="M32.2313 64.2125H48.1688V67.4H32.2313V64.2125Z" fill="white"/>
<path d="M22.6688 27.45H38.6063V33.825H22.6688V27.45Z" fill="#D03B00"/>
<path d="M51.3563 22.6688H60.9188V25.8563H51.3563V22.6688Z" fill="white"/>
<path d="M48.1688 29.0438H60.9188V32.2313H48.1688V29.0438Z" fill="white"/>
<path d="M44.9813 35.4188H60.9188V38.6063H44.9813V35.4188Z" fill="white"/>
<path d="M40.2 64.2125H48.1688V67.4H40.2V64.2125Z" fill="white"/>
<path d="M40.2 22.7007C38.7656 20.7563 36.4389 19.4813 33.825 19.4813H27.45C23.0514 19.4813 19.4813 23.0514 19.4813 27.45V29.0438H41.7938V27.45C41.7938 25.6649 41.2202 24.0073 40.2 22.7007Z" fill="#FF9F00"/>
<path d="M19.4813 32.2313V33.825C19.4813 38.2236 23.0514 41.7938 27.45 41.7938H33.825C36.4389 41.7938 38.7337 40.5507 40.2 38.6063C41.1882 37.2993 41.7938 35.6101 41.7938 33.825V32.2313H19.4813Z" fill="#FF9F00"/>
<path d="M41.7938 29.0437H40.2V22.7007C41.2202 24.0072 41.7938 25.6649 41.7938 27.45V29.0437Z" fill="#FF7816"/>
<path d="M41.7938 33.825C41.7938 35.6101 41.1882 37.2993 40.2 38.6063V32.2313H41.7938V33.825Z" fill="#FF7816"/>
</svg>
