<svg width="80" height="80" viewBox="0 0 80 80" fill="none" xmlns="http://www.w3.org/2000/svg">
<path d="M40 80C62.0914 80 80 62.0914 80 40C80 17.9086 62.0914 0 40 0C17.9086 0 0 17.9086 0 40C0 62.0914 17.9086 80 40 80Z" fill="#FFF6E0"/>
<path d="M80 40C80 38.8887 79.9525 37.7887 79.8636 36.7004L62.2776 19.1145L17.7222 60.8854L36.7004 79.8637C37.7887 79.9525 38.8887 80 40 80C62.0914 80 80 62.0914 80 40Z" fill="#FFF6E0"/>
<path d="M34.7786 21.7253L40 60.8855H62.2778V26.9466L34.7786 21.7253Z" fill="#9DA6AC"/>
<path d="M17.7222 26.9466V60.8855H40V21.7253L17.7222 26.9466Z" fill="#BFBFBF"/>
<path d="M54.4458 19.1145L50.5297 23.6832L54.4458 26.9465H62.2778V19.1145H54.4458Z" fill="#FF4181"/>
<path d="M54.4458 26.9465V19.1145H40L37.3894 23.6832L40 26.9465H54.4458Z" fill="#092A40"/>
<path d="M40 19.1141H17.7219V26.9453H40V19.1141Z" fill="#235C81"/>
<path d="M40 29.5574L34.7786 44.5688L40 58.2747H59.667V29.5574H40Z" fill="#FFF5D9"/>
<path d="M40 29.5578H20.3328V58.275H40V29.5578Z" fill="white"/>
<path d="M22.9436 49.1374V55.6641H40V49.1374L31.4717 46.5267L22.9436 49.1374Z" fill="#45A2E0"/>
<path d="M40 32.1672H22.9437V49.1359H40V32.1672Z" fill="#FFE290"/>
<path d="M57.0563 32.1672H43.9156V34.7778H57.0563V32.1672Z" fill="#235C81"/>
<path d="M57.0563 37.389H43.9156V39.9997H57.0563V37.389Z" fill="#235C81"/>
<path d="M57.0563 53.0531H43.9156V55.6637H57.0563V53.0531Z" fill="#235C81"/>
<path d="M57.0563 42.6109H43.9156V45.2215H57.0563V42.6109Z" fill="#235C81"/>
<path d="M31.4719 45.2204C33.6344 45.2204 35.3875 43.4673 35.3875 41.3047C35.3875 39.1422 33.6344 37.3891 31.4719 37.3891C29.3094 37.3891 27.5563 39.1422 27.5563 41.3047C27.5563 43.4673 29.3094 45.2204 31.4719 45.2204Z" fill="#FFB14E"/>
</svg>
