<?xml version="1.0"?>
<svg xmlns="http://www.w3.org/2000/svg" xmlns:xlink="http://www.w3.org/1999/xlink" xmlns:svgjs="http://svgjs.com/svgjs" version="1.1" width="512" height="512" x="0" y="0" viewBox="0 0 480.882 480.882" style="enable-background:new 0 0 512 512" xml:space="preserve" class=""><circle r="240.441" cx="240.441" cy="240.441" fill="#683821" shape="circle" transform="matrix(1,0,0,1,0,0)"/><g transform="matrix(1,0,0,1,-2.842170943040401e-14,0)">
<path xmlns="http://www.w3.org/2000/svg" d="M374.651,286.844l-14.498-4.326l-6.256-77.86c2.94-4.253,5.466-9.017,7.303-14.287c3.77-10.807,4.443-22.083,1.877-31.748  c-1.752-6.624-5.105-11.995-9.414-15.975c1.518-8.015,2.573-19.08,2.573-26.861C356.236,51.845,304.399,0,240.441,0  c-63.957,0-115.803,51.845-115.803,115.787c0,8.458,1.053,18.698,2.771,26.683c-4.409,3.983-7.834,9.434-9.613,16.153  c-2.558,9.657-1.893,20.933,1.877,31.741c1.829,5.27,4.363,10.04,7.311,14.285l-6.255,77.869l-14.498,4.326  c-16.765,4.997-26.782,22.137-22.911,39.191l8.163,35.924c15.797,69.557,77.626,118.923,148.958,118.923  c71.331,0,133.161-49.366,148.958-118.923l8.163-35.924C401.432,308.981,391.415,291.84,374.651,286.844z M133.28,162.722  c0.836-3.176,2.995-8.759,8.031-10.511c0.476-0.171,1.311-0.23,2.119-0.351c3.761-0.561,7.104-2.338,8.923-3.487  c10.503-6.636,27.063-16.775,48.433-35.526c15.951-13.98,31.831-31.544,42.545-52.342c-4.704,14.675-11.512,35.22-21.211,49.84  c-2.495,3.753-5.075,7.131-7.742,9.899c0,0,7.381-3.66,17.203-10.275c14.029-9.454,33.069-24.999,43.078-45.01  c0,0,7.421,38.793,53.049,60.962c1.353,5.921,2.221,12.051,2.525,18.353c0.195,3.965,3.262,7.194,7.21,7.587  c0.821,0.077,1.651,0.179,2.159,0.358c4.997,1.744,7.155,7.327,7.999,10.503c1.72,6.513,1.165,14.669-1.525,22.387  c-5.013,14.404-15.28,22.177-22.584,22.177h-0.006c-3.339-0.25-6.187,1.845-7.483,4.809c-14.585,33.438-42.095,69.173-75.563,69.173  c-33.476,0-60.986-35.735-75.569-69.173c-1.275-2.924-4.489-4.809-7.673-4.809c-7.115,0-17.39-7.773-22.403-22.185  C132.108,177.391,131.552,169.234,133.28,162.722z M290.308,278.414c-0.236,27.041-22.255,48.975-49.343,48.975  c-27.196,0-49.319-22.099-49.382-49.279l1.096-0.33c13.951,11.683,29.974,19.503,47.763,19.503c17.783,0,33.812-7.812,47.754-19.495  L290.308,278.414z M381.946,322.486l-8.163,35.922c-14.232,62.684-69.063,106.458-133.342,106.458  c-64.278,0-119.11-43.774-133.342-106.458l-8.163-35.917c-1.994-8.805,3.212-17.727,11.87-20.298l8.547-2.549l-2.05,25.46  c-0.812,10.12,3.716,19.934,11.949,25.875l57.085,41.211c3.136,2.26,7.311,2.425,10.611,0.423c3.299-2.002,5.083-5.78,4.52-9.596  l-8.938-61.469c11.98,13.316,29.159,21.855,48.435,21.855c18.565,0,35.252-7.858,47.16-20.323l-8.71,59.937  c-0.564,3.816,1.22,7.594,4.52,9.596c3.301,2.002,7.476,1.837,10.611-0.423l57.084-41.211c8.233-5.941,12.761-15.755,11.949-25.875  l-2.05-25.46l8.547,2.549C378.733,304.766,383.941,313.688,381.946,322.486z" fill="#000000" data-original="#000000" style=""/>
<g xmlns="http://www.w3.org/2000/svg">
</g>
<g xmlns="http://www.w3.org/2000/svg">
</g>
<g xmlns="http://www.w3.org/2000/svg">
</g>
<g xmlns="http://www.w3.org/2000/svg">
</g>
<g xmlns="http://www.w3.org/2000/svg">
</g>
<g xmlns="http://www.w3.org/2000/svg">
</g>
<g xmlns="http://www.w3.org/2000/svg">
</g>
<g xmlns="http://www.w3.org/2000/svg">
</g>
<g xmlns="http://www.w3.org/2000/svg">
</g>
<g xmlns="http://www.w3.org/2000/svg">
</g>
<g xmlns="http://www.w3.org/2000/svg">
</g>
<g xmlns="http://www.w3.org/2000/svg">
</g>
<g xmlns="http://www.w3.org/2000/svg">
</g>
<g xmlns="http://www.w3.org/2000/svg">
</g>
<g xmlns="http://www.w3.org/2000/svg">
</g>
</g></svg>
