<svg width="200" height="200" viewBox="0 0 200 200" fill="none" xmlns="http://www.w3.org/2000/svg">
<path d="M100 200C155.228 200 200 155.228 200 100C200 44.7715 155.228 0 100 0C44.7715 0 0 44.7715 0 100C0 155.228 44.7715 200 100 200Z" fill="#502C14"/>
<path d="M99.6677 89.4632C114.77 89.4632 127.02 74.3609 127.02 55.7318C127.02 37.1023 122.994 22 99.6677 22C76.3363 22 72.3132 37.1023 72.3132 55.7318C72.3136 74.3609 84.5628 89.4632 99.6677 89.4632Z" fill="#FFF6E0"/>
<path d="M48.0056 137.024C48.001 135.888 47.9957 136.703 48.0056 137.024V137.024Z" fill="#FFF6E0"/>
<path d="M151.326 137.912C151.34 137.601 151.331 135.754 151.326 137.912V137.912Z" fill="#FFF6E0"/>
<path d="M151.271 135.661C150.76 103.209 146.59 93.9621 114.642 88.1088L99.6684 113.737L84.6866 88.1088C53.0952 93.8983 48.663 103.008 48.0808 134.608C48.0362 137.187 48.0151 137.324 48.0055 137.024C48.0076 137.585 48.0105 138.624 48.0105 140.432C48.0105 140.432 55.6165 156 99.6684 156C143.717 156 151.325 140.432 151.325 140.432C151.325 139.27 151.326 138.46 151.326 137.912C151.318 138.097 151.302 137.738 151.271 135.661Z" fill="#FFF6E0"/>
</svg>
